<?xml version="1.0" encoding="UTF-8" standalone="no"?>
<!-- Created with Inkscape (http://www.inkscape.org/) -->

<svg
   width="210mm"
   height="297mm"
   viewBox="0 0 210 297"
   version="1.1"
   id="svg1"
   inkscape:version="1.3.2 (091e20e, 2023-11-25, custom)"
   sodipodi:docname="Dukan.svg"
   xmlns:inkscape="http://www.inkscape.org/namespaces/inkscape"
   xmlns:sodipodi="http://sodipodi.sourceforge.net/DTD/sodipodi-0.dtd"
   xmlns="http://www.w3.org/2000/svg"
   xmlns:svg="http://www.w3.org/2000/svg">
  <sodipodi:namedview
     id="namedview1"
     pagecolor="#ffffff"
     bordercolor="#000000"
     borderopacity="0.25"
     inkscape:showpageshadow="2"
     inkscape:pageopacity="0.0"
     inkscape:pagecheckerboard="0"
     inkscape:deskcolor="#d1d1d1"
     inkscape:document-units="mm"
     inkscape:zoom="5.7298267"
     inkscape:cx="548.96948"
     inkscape:cy="633.7888"
     inkscape:window-width="2560"
     inkscape:window-height="1351"
     inkscape:window-x="-9"
     inkscape:window-y="-9"
     inkscape:window-maximized="1"
     inkscape:current-layer="layer1" />
  <defs
     id="defs1" />
  <g
     inkscape:label="Layer 1"
     inkscape:groupmode="layer"
     id="layer1">
    <path
       style="fill:#aad400;stroke-width:0.485496"
       id="path3"
       sodipodi:type="arc"
       sodipodi:cx="-89.033783"
       sodipodi:cy="-103.3558"
       sodipodi:rx="37.957081"
       sodipodi:ry="30.372217"
       sodipodi:start="0"
       sodipodi:end="3.1415927"
       sodipodi:arc-type="slice"
       d="m -51.076702,-103.3558 a 37.957081,30.372217 0 0 1 -18.978541,26.303115 37.957081,30.372217 0 0 1 -37.957077,-10e-7 37.957081,30.372217 0 0 1 -18.97854,-26.303114 h 37.957077 z"
       transform="matrix(-0.99999971,-7.6022993e-4,0.00102227,-0.99999948,0,0)"
       inkscape:export-filename="Game Jam\Game Development\Dukan\Assets\Sprite\NPC\Chest.png"
       inkscape:export-xdpi="96"
       inkscape:export-ydpi="96" />
    <g
       id="g11"
       transform="translate(1.108236,0.55411798)">
      <g
         id="g10">
        <g
           id="g6"
           inkscape:export-filename="Game Jam\Game Development\Dukan\Assets\Sprite\NPC\Head.png"
           inkscape:export-xdpi="96"
           inkscape:export-ydpi="96">
          <ellipse
             style="fill:#d38d5f;stroke-width:0.264583"
             id="path2"
             cx="88.398048"
             cy="75.59034"
             rx="7.0527701"
             ry="7.8364115" />
          <g
             id="g5">
            <ellipse
               style="fill:#deaa87;stroke-width:0.264583"
               id="path1"
               cx="87.943779"
               cy="57.606247"
               rx="16.848286"
               ry="17.109499" />
            <path
               style="fill:#deaa87;stroke-width:0.264583"
               id="path4"
               sodipodi:type="arc"
               sodipodi:cx="-97.239273"
               sodipodi:cy="-67.707062"
               sodipodi:rx="3.6941197"
               sodipodi:ry="4.3405905"
               sodipodi:start="0"
               sodipodi:end="4.7490913"
               sodipodi:arc-type="slice"
               d="m -93.545153,-67.707062 a 3.6941197,4.3405905 0 0 1 -2.311816,4.025255 3.6941197,4.3405905 0 0 1 -4.041934,-1.012832 3.6941197,4.3405905 0 0 1 -0.713087,-4.783239 3.6941197,4.3405905 0 0 1 3.508269,-2.566851 l -0.135552,4.337667 z"
               transform="rotate(173.7933)" />
            <path
               style="fill:#deaa87;stroke-width:0.264583"
               id="path5"
               sodipodi:type="arc"
               sodipodi:cx="72.127693"
               sodipodi:cy="59.198269"
               sodipodi:rx="4.1558847"
               sodipodi:ry="4.8947086"
               sodipodi:start="0"
               sodipodi:end="4.7490913"
               sodipodi:arc-type="slice"
               d="m 76.283578,59.198269 a 4.1558847,4.8947086 0 0 1 -2.600793,4.539117 4.1558847,4.8947086 0 0 1 -4.547176,-1.14213 4.1558847,4.8947086 0 0 1 -0.802225,-5.393865 4.1558847,4.8947086 0 0 1 3.946806,-2.894534 l -0.152497,4.891412 z" />
          </g>
        </g>
      </g>
    </g>
    <g
       id="g20"
       inkscape:export-filename="Game Jam\Game Development\Dukan\Assets\Sprite\NPC\Hair1.png"
       inkscape:export-xdpi="96"
       inkscape:export-ydpi="96"
       transform="translate(-57.205805,-1.0448549)">
      <g
         id="g19">
        <rect
           style="fill:#241f1c;stroke-width:0.286236"
           id="rect6"
           width="29.183546"
           height="7.9423547"
           x="129.1095"
           y="40.265903"
           ry="3.8788247" />
      </g>
      <rect
         style="fill:#241f1c;stroke-width:0.195258"
         id="rect7"
         width="19.948242"
         height="5.4069562"
         x="39.960018"
         y="-133.78113"
         ry="2.6406069"
         transform="matrix(-0.00782064,0.99996942,-0.99994168,-0.01080008,0,0)" />
    </g>
    <g
       id="g9"
       inkscape:export-filename="Game Jam\Game Development\Dukan\Assets\Sprite\NPC\g9.png"
       inkscape:export-xdpi="96"
       inkscape:export-ydpi="96">
      <rect
         style="fill:#241f1c;stroke-width:0.286236"
         id="rect8"
         width="29.183546"
         height="7.9423547"
         x="164.01894"
         y="40.081196"
         ry="3.8788247" />
      <rect
         style="fill:#241f1c;stroke-width:0.195258"
         id="rect9"
         width="19.948242"
         height="5.4069562"
         x="39.502373"
         y="-193.25635"
         ry="2.6406069"
         transform="matrix(-0.00782064,0.99996942,-0.99994168,-0.01080008,0,0)" />
    </g>
    <path
       d="m 163.21374,78.104904 a 9.9564754,10.02643 16.282481 0 1 8.30217,-5.045053 9.9564754,10.02643 16.282481 0 1 8.14618,3.864721 9.0018772,9.1854785 82.218648 0 1 7.02876,-3.650053 9.0018772,9.1854785 82.218648 0 1 7.28385,3.210987 16.009177,16.087047 27.459337 0 0 -15.66459,-10.867817 16.009177,16.087047 27.459337 0 0 -15.09637,12.487215 z"
       style="fill:#241f1c;stroke-width:0.256255"
       id="path15"
       inkscape:export-filename="path15.png"
       inkscape:export-xdpi="96"
       inkscape:export-ydpi="96" />
    <path
       d="m 145.58081,66.124937 a 16.48911,16.069422 0 0 0 -14.38343,8.297685 9.447815,9.0044174 0 0 1 6.00573,-2.110466 9.447815,9.0044174 0 0 1 7.12588,3.153813 10.249988,10.0203 0 0 1 8.47195,-4.446757 10.249988,10.0203 0 0 1 6.49301,2.278414 16.48911,16.069422 0 0 0 -13.71314,-7.172689 z"
       style="fill:#241f1c;stroke-width:0.259926"
       id="path14"
       inkscape:export-filename="path14.png"
       inkscape:export-xdpi="96"
       inkscape:export-ydpi="96" />
    <g
       id="g21"
       inkscape:export-filename="g21.png"
       inkscape:export-xdpi="96"
       inkscape:export-ydpi="96">
      <path
         d="m 167.31181,88.890588 a 9.9564754,10.02643 63.951242 0 1 9.32044,2.740078 9.9564754,10.02643 63.951242 0 1 2.62872,8.624744 9.1854785,9.0018772 39.887409 0 1 7.43163,2.7381 9.1854785,9.0018772 39.887409 0 1 2.53129,7.54702 16.009177,16.087047 75.128098 0 0 -2.5146,-18.898825 16.009177,16.087047 75.128098 0 0 -19.39748,-2.751117 z"
         style="fill:#241f1c;stroke-width:0.256255"
         id="path16" />
      <path
         style="fill:#2b2200;stroke-width:0.327067"
         id="path17"
         sodipodi:type="arc"
         sodipodi:cx="186.64542"
         sodipodi:cy="91.475639"
         sodipodi:rx="6.2800035"
         sodipodi:ry="6.9726515"
         sodipodi:start="0"
         sodipodi:end="6.2830776"
         sodipodi:arc-type="slice"
         d="m 192.92542,91.475639 a 6.2800035,6.9726515 0 0 1 -6.27983,6.972652 6.2800035,6.9726515 0 0 1 -6.28018,-6.972276 6.2800035,6.9726515 0 0 1 6.2795,-6.973027 6.2800035,6.9726515 0 0 1 6.28051,6.9719 l -6.28,7.51e-4 z" />
      <path
         style="fill:#2b2200;stroke-width:0.264583"
         id="path18"
         sodipodi:type="arc"
         sodipodi:cx="193.61806"
         sodipodi:cy="87.920052"
         sodipodi:rx="2.7244132"
         sodipodi:ry="2.5858839"
         sodipodi:start="0"
         sodipodi:end="6.2830776"
         sodipodi:arc-type="slice"
         d="m 196.34247,87.920052 a 2.7244132,2.5858839 0 0 1 -2.72434,2.585883 2.7244132,2.5858839 0 0 1 -2.72449,-2.585744 2.7244132,2.5858839 0 0 1 2.7242,-2.586023 2.7244132,2.5858839 0 0 1 2.72463,2.585605 l -2.72441,2.79e-4 z" />
    </g>
    <g
       id="g22"
       transform="translate(60.942103,99.68799)"
       inkscape:export-filename="g22.png"
       inkscape:export-xdpi="96"
       inkscape:export-ydpi="96">
      <rect
         style="fill:#2b2200;stroke-width:0.264583"
         id="rect21"
         width="7.9423575"
         height="2.4011779"
         x="77.484169"
         y="52.17944"
         ry="1.2005889" />
      <rect
         style="fill:#2b2200;stroke-width:0.264583"
         id="rect22"
         width="8.681181"
         height="2.8629429"
         x="92.814766"
         y="51.532974"
         ry="1.2005889" />
    </g>
    <path
       style="fill:#ac9d93;stroke-width:0.264583"
       d="m 17.436016,112.12598 -1.763193,10.64447 7.836411,0.0653 -2.350923,-10.70976 z"
       id="path27"
       sodipodi:nodetypes="ccccc"
       inkscape:export-filename="path27.png"
       inkscape:export-xdpi="96"
       inkscape:export-ydpi="96" />
    <g
       id="g30"
       transform="translate(1.1754617,-0.39182058)"
       inkscape:export-filename="g30.png"
       inkscape:export-xdpi="96"
       inkscape:export-ydpi="96">
      <path
         style="fill:#ac9d93;stroke-width:0.264583"
         d="m 27.100924,112.32189 -1.763193,10.64447 7.836411,0.0653 -2.350923,-10.70976 z"
         id="path28"
         sodipodi:nodetypes="ccccc" />
      <path
         style="fill:#ac9d93;stroke-width:0.336389"
         id="path29"
         sodipodi:type="arc"
         sodipodi:cx="29.255938"
         sodipodi:cy="122.50922"
         sodipodi:rx="3.8529024"
         sodipodi:ry="3.3957784"
         sodipodi:start="0"
         sodipodi:end="6.2830776"
         sodipodi:arc-type="slice"
         d="m 33.10884,122.50922 a 3.8529024,3.3957784 0 0 1 -3.852799,3.39577 3.8529024,3.3957784 0 0 1 -3.853006,-3.39559 3.8529024,3.3957784 0 0 1 3.852591,-3.39596 3.8529024,3.3957784 0 0 1 3.853214,3.39541 l -3.852902,3.7e-4 z" />
    </g>
    <g
       id="g37"
       inkscape:export-filename="g37.png"
       inkscape:export-xdpi="96"
       inkscape:export-ydpi="96">
      <g
         id="g31"
         transform="translate(12.799472,-0.52242744)">
        <path
           style="fill:#ac9d93;stroke-width:0.264583"
           d="m 27.100924,112.32189 -1.763193,10.64447 7.836411,0.0653 -2.350923,-10.70976 z"
           id="path30"
           sodipodi:nodetypes="ccccc" />
        <path
           style="fill:#ac9d93;stroke-width:0.336389"
           id="path31"
           sodipodi:type="arc"
           sodipodi:cx="29.255938"
           sodipodi:cy="122.50922"
           sodipodi:rx="3.8529024"
           sodipodi:ry="3.3957784"
           sodipodi:start="0"
           sodipodi:end="6.2830776"
           sodipodi:arc-type="slice"
           d="m 33.10884,122.50922 a 3.8529024,3.3957784 0 0 1 -3.852799,3.39577 3.8529024,3.3957784 0 0 1 -3.853006,-3.39559 3.8529024,3.3957784 0 0 1 3.852591,-3.39596 3.8529024,3.3957784 0 0 1 3.853214,3.39541 l -3.852902,3.7e-4 z" />
      </g>
      <path
         style="fill:#ac9d93;stroke-width:0.264583"
         id="path32"
         sodipodi:type="arc"
         sodipodi:cx="38.235157"
         sodipodi:cy="121.56234"
         sodipodi:rx="1.7305409"
         sodipodi:ry="1.7958443"
         sodipodi:start="0"
         sodipodi:end="6.2830776"
         sodipodi:arc-type="slice"
         d="m 39.965698,121.56234 a 1.7305409,1.7958443 0 0 1 -1.730494,1.79584 1.7305409,1.7958443 0 0 1 -1.730588,-1.79574 1.7305409,1.7958443 0 0 1 1.730401,-1.79594 1.7305409,1.7958443 0 0 1 1.730681,1.79565 l -1.730541,1.9e-4 z" />
      <path
         style="fill:#ac9d93;stroke-width:0.264583"
         id="path33"
         sodipodi:type="arc"
         sodipodi:cx="45.745052"
         sodipodi:cy="121.56234"
         sodipodi:rx="1.7305409"
         sodipodi:ry="1.7958443"
         sodipodi:start="0"
         sodipodi:end="6.2830776"
         sodipodi:arc-type="slice"
         d="m 47.475593,121.56234 a 1.7305409,1.7958443 0 0 1 -1.730494,1.79584 1.7305409,1.7958443 0 0 1 -1.730588,-1.79574 1.7305409,1.7958443 0 0 1 1.730402,-1.79594 1.7305409,1.7958443 0 0 1 1.73068,1.79565 l -1.730541,1.9e-4 z" />
    </g>
    <path
       style="fill:#ac9d93;stroke-width:0.264583"
       d="m 53.156992,112.25659 -3.461082,10.57917 7.836411,0.0653 -4.179419,-10.84037 z"
       id="path34"
       sodipodi:nodetypes="ccccc"
       inkscape:export-filename="path34.png"
       inkscape:export-xdpi="96"
       inkscape:export-ydpi="96" />
    <path
       style="fill:#ac9d93;stroke-width:0.264583"
       d="m 41.337071,127.01516 -3.461082,10.57917 7.836411,0.0653 -4.179419,-10.84037 z"
       id="path35"
       sodipodi:nodetypes="ccccc" />
    <path
       style="fill:#ac9d93;stroke-width:0.264583"
       d="m 52.830475,126.42743 -3.461082,10.57917 7.836411,0.0653 -4.179419,-10.84037 z"
       id="path36"
       sodipodi:nodetypes="ccccc" />
    <path
       style="fill:#ac9d93;stroke-width:0.18085"
       d="m 86.788259,55.377304 0.06102,10.64447 3.661274,0.0653 -0.03051,-10.70976 z"
       id="path37"
       sodipodi:nodetypes="ccccc"
       inkscape:export-filename="path37.png"
       inkscape:export-xdpi="96"
       inkscape:export-ydpi="96" />
    <path
       style="fill:#ac9d93;stroke-width:0.264583"
       id="path38"
       sodipodi:type="arc"
       sodipodi:cx="105.39973"
       sodipodi:cy="123.22757"
       sodipodi:rx="4.9630604"
       sodipodi:ry="4.1141162"
       sodipodi:start="0"
       sodipodi:end="3.1718445"
       sodipodi:arc-type="slice"
       d="m 110.36279,123.22757 a 4.9630604,4.1141162 0 0 1 -2.525,3.58349 4.9630604,4.1141162 0 0 1 -5.00577,-0.0628 4.9630604,4.1141162 0 0 1 -2.39308,-3.64516 l 4.96079,0.12444 z"
       inkscape:export-filename=".\paths38.png"
       inkscape:export-xdpi="96"
       inkscape:export-ydpi="96" />
    <path
       style="fill:#ac9d93;stroke-width:0.264583"
       id="path39"
       sodipodi:type="arc"
       sodipodi:cx="-122.3733"
       sodipodi:cy="-127.35979"
       sodipodi:rx="4.9630604"
       sodipodi:ry="4.1141162"
       sodipodi:start="0"
       sodipodi:end="3.1718445"
       sodipodi:arc-type="slice"
       d="m -117.41024,-127.35979 a 4.9630604,4.1141162 0 0 1 -2.525,3.58349 4.9630604,4.1141162 0 0 1 -5.00576,-0.0628 4.9630604,4.1141162 0 0 1 -2.39309,-3.64516 l 4.96079,0.12444 z"
       transform="rotate(-179.88317)"
       inkscape:export-filename="paths39.png"
       inkscape:export-xdpi="96"
       inkscape:export-ydpi="96" />
    <path
       d="m 138.26133,122.84263 a 4.9630604,4.1141162 0.11683 0 0 -2.51406,0.52503 4.9630604,4.1141162 0.11683 0 0 -2.53215,3.57808 h 0.0692 a 5.5018131,4.1141173 0.07479256 0 1 2.21537,-1.74976 5.5018131,4.1141173 0.07479256 0 1 5.54901,0.0729 5.5018131,4.1141173 0.07479256 0 1 2.09187,1.71772 4.9630604,4.1141162 0.11683 0 0 -2.38797,-3.54603 4.9630604,4.1141162 0.11683 0 0 -2.49132,-0.5979 z"
       style="fill:#ac9d93;stroke-width:0.264583"
       id="path43"
       inkscape:export-filename="path43.png"
       inkscape:export-xdpi="96"
       inkscape:export-ydpi="96" />
    <path
       d="m 149.80117,127.37012 a 4.9630604,4.1141162 3.2531086 0 0 2.53902,-0.3867 4.9630604,4.1141162 3.2531086 0 0 2.72412,-3.43418 l -0.0691,-0.004 a 5.5018131,4.1141173 3.2110712 0 1 -2.30778,1.62594 5.5018131,4.1141173 3.2110712 0 1 -5.53671,-0.37639 5.5018131,4.1141173 3.2110712 0 1 -1.99476,-1.82959 4.9630604,4.1141162 3.2531086 0 0 2.19039,3.67136 4.9630604,4.1141162 3.2531086 0 0 2.45487,0.73331 z"
       style="fill:#ac9d93;stroke-width:0.264583"
       id="path44"
       inkscape:export-filename="path44.png"
       inkscape:export-xdpi="96"
       inkscape:export-ydpi="96" />
    <path
       style="fill:#ac9d93;stroke-width:0.18085"
       d="m 100.4743,118.83387 10.64427,-0.0894 0.0555,-3.66143 -10.70964,0.0591 z"
       id="path45"
       sodipodi:nodetypes="ccccc"
       inkscape:export-filename="path38.png"
       inkscape:export-xdpi="96"
       inkscape:export-ydpi="96" />
    <path
       style="fill:#ac9d93;stroke-width:0.18085"
       d="m 117.64911,118.63796 6.92197,-0.1547 1.9493,-3.66143 -10.70964,0.0591 z"
       id="path46"
       sodipodi:nodetypes="ccccc"
       inkscape:export-filename="path39.png"
       inkscape:export-xdpi="96"
       inkscape:export-ydpi="96" />
    <rect
       style="fill:#2b2200;stroke-width:0.264583"
       id="rect46"
       width="7.9423575"
       height="2.4011779"
       x="139.74954"
       y="161.53233"
       ry="1.2005889" />
    <rect
       style="fill:#2b2200;stroke-width:0.264583"
       id="rect47"
       width="8.681181"
       height="2.8629429"
       x="155.08014"
       y="160.88588"
       ry="1.2005889" />
    <rect
       style="fill:#2b2200;stroke-width:0.229428"
       id="rect48"
       width="6.916615"
       height="2.0732403"
       x="42.257664"
       y="208.15813"
       ry="1.0366201"
       transform="matrix(0.88847131,-0.45893216,0.46990207,0.88271855,0,0)" />
    <rect
       style="fill:#2b2200;stroke-width:0.255396"
       id="rect49"
       width="7.5120707"
       height="2.3654728"
       x="-222.92677"
       y="60.864086"
       ry="1.1827364"
       transform="matrix(-0.87125919,-0.49082321,-0.43864084,0.89866246,0,0)" />
  </g>
</svg>
